<svg xmlns="http://www.w3.org/2000/svg" viewBox="0 0 187.5 201.95" x="0px" y="0px"><defs><style>.cls-1{fill:#231f20;}</style></defs><title>Asset 25</title><g data-name="Layer 2"><g data-name="icon 1"><path class="cls-1" d="M183.21,64.23a15.45,15.45,0,0,0-4.15-10.53,15.51,15.51,0,0,0-3.26-28.83A15.5,15.5,0,0,0,163.38,0H66.25L66.1,0V0h-3.7L51.55,0h-.43L3.75.09A3.75,3.75,0,0,0,0,3.84V81.5a3.75,3.75,0,0,0,3.75,3.75H46.68c11,0,17.19,15.93,20.43,29.3a185.49,185.49,0,0,1,4.44,31.56,15.53,15.53,0,0,0,31.06-.09V104.08h65.07a15.51,15.51,0,0,0,9.63-27.69A15.5,15.5,0,0,0,183.21,64.23ZM7.5,77.75V7.59L43,7.54c-1.54,4.16-2.3,10-2.3,17.72h0v0s0,.1,0,.15l2,52.3ZM167.68,96.58H102.61v-.92a3.75,3.75,0,1,0-7.5,0V146A8,8,0,0,1,79,146s0-.1,0-.15a189.77,189.77,0,0,0-4.63-33C69.34,91.83,61.23,80.15,50.3,78.09L48.23,25.26a26.7,26.7,0,0,1,2.11-9.41c2.34-5.23,6.17-8,11.67-8.3H163.38a8,8,0,0,1,0,16.06h-20a3.74,3.74,0,0,0-3.63,2.87,3.71,3.71,0,0,0-.4,1.65,3.75,3.75,0,0,0,3.75,3.75H172a8,8,0,0,1,0,16.06H148.79A3.75,3.75,0,0,0,145,51.68a3.68,3.68,0,0,0,0,.38,3.68,3.68,0,0,0,0,.38,3.75,3.75,0,0,0,3.75,3.75h18.88a8,8,0,0,1,0,16.06H153.09A3.75,3.75,0,0,0,149.34,76a3.66,3.66,0,0,0,0,.38,3.66,3.66,0,0,0,0,.38,3.75,3.75,0,0,0,3.75,3.75h14.59a8,8,0,0,1,0,16.06Z"/></g></g><text x="0" y="176.56" fill="#000000" font-size="5px" font-weight="bold" font-family="'Helvetica Neue', Helvetica, Arial-Unicode, Arial, Sans-serif">Created by Digithrust</text><text x="0" y="181.56" fill="#000000" font-size="5px" font-weight="bold" font-family="'Helvetica Neue', Helvetica, Arial-Unicode, Arial, Sans-serif">from the Noun Project</text></svg>