<svg xmlns="http://www.w3.org/2000/svg" viewBox="0 0 148.38 234.375" x="0px" y="0px"><defs><style>.cls-1{fill:#231f20;}</style></defs><title>Asset 23</title><g data-name="Layer 2"><g data-name="icon 1"><path class="cls-1" d="M130.81,11.33A17.59,17.59,0,0,0,113.25,28.9V50.39a17.51,17.51,0,0,0-25.39,3.69,17.5,17.5,0,0,0-25.09-3.29V17.57a17.57,17.57,0,0,0-35.14,0V70.93C16.38,72,8.15,78.15,3.74,88.83,0,97.88,0,107.61,0,111.76v3.38c0,42.6,30.51,72.36,74.2,72.36,27,0,47.07-9.12,59.53-27.1,9.72-14,14.65-33.23,14.65-57.06V28.9A17.59,17.59,0,0,0,130.81,11.33Zm10.07,92c0,22.28-4.48,40-13.32,52.79C116.59,172,98.63,180,74.2,180c-19.7,0-36.52-6.39-48.63-18.49C13.92,149.88,7.5,133.41,7.5,115.14v-3.38C7.5,91,14.1,80.1,27.64,78.46V98.3a3.75,3.75,0,0,0,7.5,0V17.57a10.07,10.07,0,0,1,20.14,0v50.3A3.75,3.75,0,0,0,59,71.62a3.7,3.7,0,0,0,.45,0,3.7,3.7,0,0,0,.45,0,3.75,3.75,0,0,0,3.75-3.75V64.49a10.07,10.07,0,1,1,20.14,0v3.38a3.75,3.75,0,0,0,3.75,3.75,3.7,3.7,0,0,0,.45,0,3.7,3.7,0,0,0,.45,0,3.75,3.75,0,0,0,3.75-3.75V64.09a10.07,10.07,0,1,1,20.14,0v3.78a3.75,3.75,0,0,0,3.75,3.75,3.7,3.7,0,0,0,.45,0,3.7,3.7,0,0,0,.45,0,3.75,3.75,0,0,0,3.75-3.75v-39a10.07,10.07,0,1,1,20.14,0Z"/></g></g><text x="0" y="202.5" fill="#000000" font-size="5px" font-weight="bold" font-family="'Helvetica Neue', Helvetica, Arial-Unicode, Arial, Sans-serif">Created by Digithrust</text><text x="0" y="207.5" fill="#000000" font-size="5px" font-weight="bold" font-family="'Helvetica Neue', Helvetica, Arial-Unicode, Arial, Sans-serif">from the Noun Project</text></svg>